<svg width="220" height="90" viewBox="0 0 220 90" fill="none" xmlns="http://www.w3.org/2000/svg">
<path d="M0 40V1.11999H17.472V6.97599H8.592V16.624H15.36V22.576H8.592V34.192H17.568V40H0Z" fill="white"/>
<path d="M27.8528 40L20.8447 1.11999H28.1888L32.3647 27.52L36.2528 1.11999H44.0288L36.9248 40H27.8528Z" fill="white"/>
<path d="M59.8016 40.576C56.8896 40.576 54.5856 40.064 52.8896 39.04C51.1936 38.016 49.9776 36.544 49.2416 34.624C48.5056 32.704 48.1376 30.416 48.1376 27.76V13.312C48.1376 10.624 48.5056 8.33599 49.2416 6.44799C49.9776 4.56 51.1936 3.12 52.8896 2.12799C54.5856 1.10399 56.8896 0.591995 59.8016 0.591995C62.7456 0.591995 65.0656 1.10399 66.7616 2.12799C68.4896 3.12 69.7216 4.56 70.4576 6.44799C71.1936 8.33599 71.5616 10.624 71.5616 13.312V27.76C71.5616 30.416 71.1936 32.704 70.4576 34.624C69.7216 36.544 68.4896 38.016 66.7616 39.04C65.0656 40.064 62.7456 40.576 59.8016 40.576ZM59.8016 34.48C60.6976 34.48 61.3536 34.256 61.7696 33.808C62.1856 33.36 62.4576 32.784 62.5856 32.08C62.7136 31.376 62.7776 30.656 62.7776 29.92V11.2C62.7776 10.432 62.7136 9.71199 62.5856 9.03999C62.4576 8.33599 62.1856 7.75999 61.7696 7.31199C61.3536 6.86399 60.6976 6.63999 59.8016 6.63999C58.9696 6.63999 58.3456 6.86399 57.9296 7.31199C57.5136 7.75999 57.2416 8.33599 57.1136 9.03999C56.9856 9.71199 56.9216 10.432 56.9216 11.2V29.92C56.9216 30.656 56.9696 31.376 57.0656 32.08C57.1936 32.784 57.4496 33.36 57.8336 33.808C58.2496 34.256 58.9056 34.48 59.8016 34.48Z" fill="white"/>
<path d="M77.9906 40V1.11999H86.5826V34.192H95.5106V40H77.9906Z" fill="white"/>
<path d="M110.954 40.576C107.978 40.576 105.642 40.096 103.946 39.136C102.282 38.144 101.114 36.72 100.442 34.864C99.7699 32.976 99.4339 30.672 99.4339 27.952V1.11999H107.93V29.248C107.93 30.048 107.994 30.848 108.122 31.648C108.25 32.448 108.522 33.104 108.938 33.616C109.386 34.128 110.058 34.384 110.954 34.384C111.882 34.384 112.554 34.128 112.97 33.616C113.386 33.104 113.642 32.448 113.738 31.648C113.866 30.848 113.93 30.048 113.93 29.248V1.11999H122.474V27.952C122.474 30.672 122.122 32.976 121.418 34.864C120.746 36.72 119.578 38.144 117.914 39.136C116.25 40.096 113.93 40.576 110.954 40.576Z" fill="white"/>
<path d="M132.645 40V7.50399H126.789V1.11999H147.093V7.50399H141.285V40H132.645Z" fill="white"/>
<path d="M151.764 40V1.11999H160.356V40H151.764Z" fill="white"/>
<path d="M178.489 40.576C175.577 40.576 173.273 40.064 171.577 39.04C169.881 38.016 168.665 36.544 167.929 34.624C167.193 32.704 166.825 30.416 166.825 27.76V13.312C166.825 10.624 167.193 8.33599 167.929 6.44799C168.665 4.56 169.881 3.12 171.577 2.12799C173.273 1.10399 175.577 0.591995 178.489 0.591995C181.433 0.591995 183.753 1.10399 185.449 2.12799C187.177 3.12 188.409 4.56 189.145 6.44799C189.881 8.33599 190.249 10.624 190.249 13.312V27.76C190.249 30.416 189.881 32.704 189.145 34.624C188.409 36.544 187.177 38.016 185.449 39.04C183.753 40.064 181.433 40.576 178.489 40.576ZM178.489 34.48C179.385 34.48 180.041 34.256 180.457 33.808C180.873 33.36 181.145 32.784 181.273 32.08C181.401 31.376 181.465 30.656 181.465 29.92V11.2C181.465 10.432 181.401 9.71199 181.273 9.03999C181.145 8.33599 180.873 7.75999 180.457 7.31199C180.041 6.86399 179.385 6.63999 178.489 6.63999C177.657 6.63999 177.033 6.86399 176.617 7.31199C176.201 7.75999 175.929 8.33599 175.801 9.03999C175.673 9.71199 175.609 10.432 175.609 11.2V29.92C175.609 30.656 175.657 31.376 175.753 32.08C175.881 32.784 176.137 33.36 176.521 33.808C176.937 34.256 177.593 34.48 178.489 34.48Z" fill="white"/>
<path d="M196.678 40V1.11999H202.726L210.694 19.84V1.11999H217.798V40H211.99L204.022 19.84V40H196.678Z" fill="white"/>
<path d="M0.143997 89V50.12H8.736V65.864H14.736V50.12H23.376V89H14.736V72.008H8.736V89H0.143997Z" fill="#6366F1"/>
<path d="M27.4249 89L34.7689 50.12H44.5609L51.8089 89H43.8889L42.5929 80.792H36.8809L35.5369 89H27.4249ZM37.6489 75.656H41.7769L39.7129 60.488L37.6489 75.656Z" fill="#6366F1"/>
<path d="M55.7344 89V50.12H61.7824L69.7504 68.84V50.12H76.8544V89H71.0464L63.0784 68.84V89H55.7344Z" fill="#6366F1"/>
<path d="M82.6406 89V50.12H92.4806C95.8726 50.12 98.5126 50.552 100.401 51.416C102.289 52.248 103.617 53.576 104.385 55.4C105.153 57.192 105.537 59.528 105.537 62.408V76.52C105.537 79.432 105.153 81.816 104.385 83.672C103.617 85.496 102.289 86.84 100.401 87.704C98.5446 88.568 95.9366 89 92.5766 89H82.6406ZM91.2326 83.048H92.5766C93.8886 83.048 94.8326 82.856 95.4086 82.472C95.9846 82.088 96.3366 81.512 96.4646 80.744C96.6246 79.976 96.7046 79.016 96.7046 77.864V60.92C96.7046 59.768 96.6086 58.84 96.4166 58.136C96.2566 57.432 95.8886 56.92 95.3126 56.6C94.7366 56.28 93.8086 56.12 92.5286 56.12H91.2326V83.048Z" fill="#6366F1"/>
<path d="M110.766 89V50.12H120.894C122.558 50.12 124.126 50.248 125.598 50.504C127.102 50.76 128.43 51.256 129.582 51.992C130.734 52.696 131.63 53.72 132.27 55.064C132.942 56.376 133.278 58.12 133.278 60.296C133.278 61.864 133.038 63.192 132.558 64.28C132.11 65.336 131.454 66.184 130.59 66.824C129.758 67.464 128.75 67.896 127.566 68.12C129.07 68.312 130.334 68.808 131.358 69.608C132.382 70.376 133.15 71.416 133.662 72.728C134.206 74.04 134.478 75.624 134.478 77.48C134.478 79.496 134.206 81.24 133.662 82.712C133.15 84.152 132.398 85.336 131.406 86.264C130.414 87.192 129.182 87.88 127.71 88.328C126.27 88.776 124.606 89 122.718 89H110.766ZM119.358 83H121.182C123.07 83 124.366 82.52 125.07 81.56C125.806 80.6 126.174 79.192 126.174 77.336C126.174 75.864 126.014 74.696 125.694 73.832C125.374 72.968 124.846 72.344 124.11 71.96C123.374 71.544 122.382 71.336 121.134 71.336H119.358V83ZM119.358 65.672H121.038C122.35 65.672 123.342 65.48 124.014 65.096C124.686 64.68 125.134 64.088 125.358 63.32C125.614 62.552 125.742 61.624 125.742 60.536C125.742 59.512 125.55 58.664 125.166 57.992C124.814 57.288 124.27 56.76 123.534 56.408C122.83 56.056 121.934 55.88 120.846 55.88H119.358V65.672Z" fill="#6366F1"/>
<path d="M150.12 89.576C147.208 89.576 144.904 89.064 143.208 88.04C141.512 87.016 140.296 85.544 139.56 83.624C138.824 81.704 138.456 79.416 138.456 76.76V62.312C138.456 59.624 138.824 57.336 139.56 55.448C140.296 53.56 141.512 52.12 143.208 51.128C144.904 50.104 147.208 49.592 150.12 49.592C153.064 49.592 155.384 50.104 157.08 51.128C158.808 52.12 160.04 53.56 160.776 55.448C161.512 57.336 161.88 59.624 161.88 62.312V76.76C161.88 79.416 161.512 81.704 160.776 83.624C160.04 85.544 158.808 87.016 157.08 88.04C155.384 89.064 153.064 89.576 150.12 89.576ZM150.12 83.48C151.016 83.48 151.672 83.256 152.088 82.808C152.504 82.36 152.776 81.784 152.904 81.08C153.032 80.376 153.096 79.656 153.096 78.92V60.2C153.096 59.432 153.032 58.712 152.904 58.04C152.776 57.336 152.504 56.76 152.088 56.312C151.672 55.864 151.016 55.64 150.12 55.64C149.288 55.64 148.664 55.864 148.248 56.312C147.832 56.76 147.56 57.336 147.432 58.04C147.304 58.712 147.24 59.432 147.24 60.2V78.92C147.24 79.656 147.288 80.376 147.384 81.08C147.512 81.784 147.768 82.36 148.152 82.808C148.568 83.256 149.224 83.48 150.12 83.48Z" fill="#6366F1"/>
<path d="M178.245 89.576C175.333 89.576 173.029 89.064 171.333 88.04C169.637 87.016 168.421 85.544 167.685 83.624C166.949 81.704 166.581 79.416 166.581 76.76V62.312C166.581 59.624 166.949 57.336 167.685 55.448C168.421 53.56 169.637 52.12 171.333 51.128C173.029 50.104 175.333 49.592 178.245 49.592C181.189 49.592 183.509 50.104 185.205 51.128C186.933 52.12 188.165 53.56 188.901 55.448C189.637 57.336 190.005 59.624 190.005 62.312V76.76C190.005 79.416 189.637 81.704 188.901 83.624C188.165 85.544 186.933 87.016 185.205 88.04C183.509 89.064 181.189 89.576 178.245 89.576ZM178.245 83.48C179.141 83.48 179.797 83.256 180.213 82.808C180.629 82.36 180.901 81.784 181.029 81.08C181.157 80.376 181.221 79.656 181.221 78.92V60.2C181.221 59.432 181.157 58.712 181.029 58.04C180.901 57.336 180.629 56.76 180.213 56.312C179.797 55.864 179.141 55.64 178.245 55.64C177.413 55.64 176.789 55.864 176.373 56.312C175.957 56.76 175.685 57.336 175.557 58.04C175.429 58.712 175.365 59.432 175.365 60.2V78.92C175.365 79.656 175.413 80.376 175.509 81.08C175.637 81.784 175.893 82.36 176.277 82.808C176.693 83.256 177.349 83.48 178.245 83.48Z" fill="#6366F1"/>
<path d="M195.234 89V50.12H203.826V66.008L210.354 50.12H218.754L211.554 67.688L219.09 89H210.354L204.738 71.816L203.826 73.352V89H195.234Z" fill="#6366F1"/>
</svg>
