<svg width="220" height="90" viewBox="0 0 220 90" fill="none" xmlns="http://www.w3.org/2000/svg">
<path d="M0.880005 40V1.11999H18.352V6.97599H9.472V16.624H16.24V22.576H9.472V34.192H18.448V40H0.880005Z" fill="black"/>
<path d="M28.7328 40L21.7248 1.11999H29.0688L33.2448 27.52L37.1328 1.11999H44.9088L37.8048 40H28.7328Z" fill="black"/>
<path d="M60.6816 40.576C57.7696 40.576 55.4656 40.064 53.7696 39.04C52.0736 38.016 50.8576 36.544 50.1216 34.624C49.3856 32.704 49.0176 30.416 49.0176 27.76V13.312C49.0176 10.624 49.3856 8.33599 50.1216 6.44799C50.8576 4.56 52.0736 3.12 53.7696 2.12799C55.4656 1.10399 57.7696 0.591995 60.6816 0.591995C63.6256 0.591995 65.9456 1.10399 67.6416 2.12799C69.3696 3.12 70.6016 4.56 71.3376 6.44799C72.0736 8.33599 72.4416 10.624 72.4416 13.312V27.76C72.4416 30.416 72.0736 32.704 71.3376 34.624C70.6016 36.544 69.3696 38.016 67.6416 39.04C65.9456 40.064 63.6256 40.576 60.6816 40.576ZM60.6816 34.48C61.5776 34.48 62.2336 34.256 62.6496 33.808C63.0656 33.36 63.3376 32.784 63.4656 32.08C63.5936 31.376 63.6576 30.656 63.6576 29.92V11.2C63.6576 10.432 63.5936 9.71199 63.4656 9.03999C63.3376 8.33599 63.0656 7.75999 62.6496 7.31199C62.2336 6.86399 61.5776 6.63999 60.6816 6.63999C59.8496 6.63999 59.2256 6.86399 58.8096 7.31199C58.3936 7.75999 58.1216 8.33599 57.9936 9.03999C57.8656 9.71199 57.8016 10.432 57.8016 11.2V29.92C57.8016 30.656 57.8496 31.376 57.9456 32.08C58.0736 32.784 58.3296 33.36 58.7136 33.808C59.1296 34.256 59.7856 34.48 60.6816 34.48Z" fill="black"/>
<path d="M78.8706 40V1.11999H87.4626V34.192H96.3906V40H78.8706Z" fill="black"/>
<path d="M111.834 40.576C108.858 40.576 106.522 40.096 104.826 39.136C103.162 38.144 101.994 36.72 101.322 34.864C100.65 32.976 100.314 30.672 100.314 27.952V1.11999H108.81V29.248C108.81 30.048 108.874 30.848 109.002 31.648C109.13 32.448 109.402 33.104 109.818 33.616C110.266 34.128 110.938 34.384 111.834 34.384C112.762 34.384 113.434 34.128 113.85 33.616C114.266 33.104 114.522 32.448 114.618 31.648C114.746 30.848 114.81 30.048 114.81 29.248V1.11999H123.354V27.952C123.354 30.672 123.002 32.976 122.298 34.864C121.626 36.72 120.458 38.144 118.794 39.136C117.13 40.096 114.81 40.576 111.834 40.576Z" fill="black"/>
<path d="M133.525 40V7.50399H127.669V1.11999H147.973V7.50399H142.165V40H133.525Z" fill="black"/>
<path d="M152.644 40V1.11999H161.236V40H152.644Z" fill="black"/>
<path d="M179.369 40.576C176.457 40.576 174.153 40.064 172.457 39.04C170.761 38.016 169.545 36.544 168.809 34.624C168.073 32.704 167.705 30.416 167.705 27.76V13.312C167.705 10.624 168.073 8.33599 168.809 6.44799C169.545 4.56 170.761 3.12 172.457 2.12799C174.153 1.10399 176.457 0.591995 179.369 0.591995C182.313 0.591995 184.633 1.10399 186.329 2.12799C188.057 3.12 189.289 4.56 190.025 6.44799C190.761 8.33599 191.129 10.624 191.129 13.312V27.76C191.129 30.416 190.761 32.704 190.025 34.624C189.289 36.544 188.057 38.016 186.329 39.04C184.633 40.064 182.313 40.576 179.369 40.576ZM179.369 34.48C180.265 34.48 180.921 34.256 181.337 33.808C181.753 33.36 182.025 32.784 182.153 32.08C182.281 31.376 182.345 30.656 182.345 29.92V11.2C182.345 10.432 182.281 9.71199 182.153 9.03999C182.025 8.33599 181.753 7.75999 181.337 7.31199C180.921 6.86399 180.265 6.63999 179.369 6.63999C178.537 6.63999 177.913 6.86399 177.497 7.31199C177.081 7.75999 176.809 8.33599 176.681 9.03999C176.553 9.71199 176.489 10.432 176.489 11.2V29.92C176.489 30.656 176.537 31.376 176.633 32.08C176.761 32.784 177.017 33.36 177.401 33.808C177.817 34.256 178.473 34.48 179.369 34.48Z" fill="black"/>
<path d="M197.558 40V1.11999H203.606L211.574 19.84V1.11999H218.678V40H212.87L204.902 19.84V40H197.558Z" fill="black"/>
<path d="M1.024 89V50.12H9.616V65.864H15.616V50.12H24.256V89H15.616V72.008H9.616V89H1.024Z" fill="#6366F1"/>
<path d="M28.3049 89L35.6489 50.12H45.4409L52.6889 89H44.7689L43.4729 80.792H37.7609L36.4169 89H28.3049ZM38.5289 75.656H42.6569L40.5929 60.488L38.5289 75.656Z" fill="#6366F1"/>
<path d="M56.6144 89V50.12H62.6624L70.6304 68.84V50.12H77.7344V89H71.9264L63.9584 68.84V89H56.6144Z" fill="#6366F1"/>
<path d="M83.5206 89V50.12H93.3606C96.7526 50.12 99.3926 50.552 101.281 51.416C103.169 52.248 104.497 53.576 105.265 55.4C106.033 57.192 106.417 59.528 106.417 62.408V76.52C106.417 79.432 106.033 81.816 105.265 83.672C104.497 85.496 103.169 86.84 101.281 87.704C99.4246 88.568 96.8166 89 93.4566 89H83.5206ZM92.1126 83.048H93.4566C94.7686 83.048 95.7126 82.856 96.2886 82.472C96.8646 82.088 97.2166 81.512 97.3446 80.744C97.5046 79.976 97.5846 79.016 97.5846 77.864V60.92C97.5846 59.768 97.4886 58.84 97.2966 58.136C97.1366 57.432 96.7686 56.92 96.1926 56.6C95.6166 56.28 94.6886 56.12 93.4086 56.12H92.1126V83.048Z" fill="#6366F1"/>
<path d="M111.646 89V50.12H121.774C123.438 50.12 125.006 50.248 126.478 50.504C127.982 50.76 129.31 51.256 130.462 51.992C131.614 52.696 132.51 53.72 133.15 55.064C133.822 56.376 134.158 58.12 134.158 60.296C134.158 61.864 133.918 63.192 133.438 64.28C132.99 65.336 132.334 66.184 131.47 66.824C130.638 67.464 129.63 67.896 128.446 68.12C129.95 68.312 131.214 68.808 132.238 69.608C133.262 70.376 134.03 71.416 134.542 72.728C135.086 74.04 135.358 75.624 135.358 77.48C135.358 79.496 135.086 81.24 134.542 82.712C134.03 84.152 133.278 85.336 132.286 86.264C131.294 87.192 130.062 87.88 128.59 88.328C127.15 88.776 125.486 89 123.598 89H111.646ZM120.238 83H122.062C123.95 83 125.246 82.52 125.95 81.56C126.686 80.6 127.054 79.192 127.054 77.336C127.054 75.864 126.894 74.696 126.574 73.832C126.254 72.968 125.726 72.344 124.99 71.96C124.254 71.544 123.262 71.336 122.014 71.336H120.238V83ZM120.238 65.672H121.918C123.23 65.672 124.222 65.48 124.894 65.096C125.566 64.68 126.014 64.088 126.238 63.32C126.494 62.552 126.622 61.624 126.622 60.536C126.622 59.512 126.43 58.664 126.046 57.992C125.694 57.288 125.15 56.76 124.414 56.408C123.71 56.056 122.814 55.88 121.726 55.88H120.238V65.672Z" fill="#6366F1"/>
<path d="M151 89.576C148.088 89.576 145.784 89.064 144.088 88.04C142.392 87.016 141.176 85.544 140.44 83.624C139.704 81.704 139.336 79.416 139.336 76.76V62.312C139.336 59.624 139.704 57.336 140.44 55.448C141.176 53.56 142.392 52.12 144.088 51.128C145.784 50.104 148.088 49.592 151 49.592C153.944 49.592 156.264 50.104 157.96 51.128C159.688 52.12 160.92 53.56 161.656 55.448C162.392 57.336 162.76 59.624 162.76 62.312V76.76C162.76 79.416 162.392 81.704 161.656 83.624C160.92 85.544 159.688 87.016 157.96 88.04C156.264 89.064 153.944 89.576 151 89.576ZM151 83.48C151.896 83.48 152.552 83.256 152.968 82.808C153.384 82.36 153.656 81.784 153.784 81.08C153.912 80.376 153.976 79.656 153.976 78.92V60.2C153.976 59.432 153.912 58.712 153.784 58.04C153.656 57.336 153.384 56.76 152.968 56.312C152.552 55.864 151.896 55.64 151 55.64C150.168 55.64 149.544 55.864 149.128 56.312C148.712 56.76 148.44 57.336 148.312 58.04C148.184 58.712 148.12 59.432 148.12 60.2V78.92C148.12 79.656 148.168 80.376 148.264 81.08C148.392 81.784 148.648 82.36 149.032 82.808C149.448 83.256 150.104 83.48 151 83.48Z" fill="#6366F1"/>
<path d="M179.125 89.576C176.213 89.576 173.909 89.064 172.213 88.04C170.517 87.016 169.301 85.544 168.565 83.624C167.829 81.704 167.461 79.416 167.461 76.76V62.312C167.461 59.624 167.829 57.336 168.565 55.448C169.301 53.56 170.517 52.12 172.213 51.128C173.909 50.104 176.213 49.592 179.125 49.592C182.069 49.592 184.389 50.104 186.085 51.128C187.813 52.12 189.045 53.56 189.781 55.448C190.517 57.336 190.885 59.624 190.885 62.312V76.76C190.885 79.416 190.517 81.704 189.781 83.624C189.045 85.544 187.813 87.016 186.085 88.04C184.389 89.064 182.069 89.576 179.125 89.576ZM179.125 83.48C180.021 83.48 180.677 83.256 181.093 82.808C181.509 82.36 181.781 81.784 181.909 81.08C182.037 80.376 182.101 79.656 182.101 78.92V60.2C182.101 59.432 182.037 58.712 181.909 58.04C181.781 57.336 181.509 56.76 181.093 56.312C180.677 55.864 180.021 55.64 179.125 55.64C178.293 55.64 177.669 55.864 177.253 56.312C176.837 56.76 176.565 57.336 176.437 58.04C176.309 58.712 176.245 59.432 176.245 60.2V78.92C176.245 79.656 176.293 80.376 176.389 81.08C176.517 81.784 176.773 82.36 177.157 82.808C177.573 83.256 178.229 83.48 179.125 83.48Z" fill="#6366F1"/>
<path d="M196.114 89V50.12H204.706V66.008L211.234 50.12H219.634L212.434 67.688L219.97 89H211.234L205.618 71.816L204.706 73.352V89H196.114Z" fill="#6366F1"/>
</svg>
